<svg width="52" height="52" viewBox="0 0 52 52" fill="none" xmlns="http://www.w3.org/2000/svg">
<path d="M29.4917 17.6667H22.5083C19.475 17.6667 17.6667 19.4751 17.6667 22.5084V29.4834C17.6667 32.5251 19.475 34.3334 22.5083 34.3334H29.4833C32.5167 34.3334 34.325 32.5251 34.325 29.4917V22.5084C34.3333 19.4751 32.525 17.6667 29.4917 17.6667ZM30.1667 30.3751H21.8333C21.4917 30.3751 21.2083 30.0917 21.2083 29.7501C21.2083 29.4084 21.4917 29.1251 21.8333 29.1251H30.1667C30.5083 29.1251 30.7917 29.4084 30.7917 29.7501C30.7917 30.0917 30.5083 30.3751 30.1667 30.3751ZM30.1667 26.6251H21.8333C21.4917 26.6251 21.2083 26.3417 21.2083 26.0001C21.2083 25.6584 21.4917 25.3751 21.8333 25.3751H30.1667C30.5083 25.3751 30.7917 25.6584 30.7917 26.0001C30.7917 26.3417 30.5083 26.6251 30.1667 26.6251ZM30.1667 22.8751H21.8333C21.4917 22.8751 21.2083 22.5917 21.2083 22.2501C21.2083 21.9084 21.4917 21.6251 21.8333 21.6251H30.1667C30.5083 21.6251 30.7917 21.9084 30.7917 22.2501C30.7917 22.5917 30.5083 22.8751 30.1667 22.8751Z" fill="#B9BABC"/>
</svg>
