<svg width="20" height="20" viewBox="0 0 20 20" fill="none" xmlns="http://www.w3.org/2000/svg">
<path d="M10 1.66675C7.81669 1.66675 6.04169 3.44175 6.04169 5.62508C6.04169 7.76675 7.71669 9.50008 9.90002 9.57508C9.96669 9.56675 10.0334 9.56675 10.0834 9.57508C10.1 9.57508 10.1084 9.57508 10.125 9.57508C10.1334 9.57508 10.1334 9.57508 10.1417 9.57508C12.275 9.50008 13.95 7.76675 13.9584 5.62508C13.9584 3.44175 12.1834 1.66675 10 1.66675Z" fill="#B9BABC"/>
<path d="M14.2334 11.7917C11.9084 10.2417 8.1167 10.2417 5.77503 11.7917C4.7167 12.5 4.13336 13.4583 4.13336 14.4833C4.13336 15.5083 4.7167 16.4583 5.7667 17.1583C6.93336 17.9417 8.4667 18.3333 10 18.3333C11.5334 18.3333 13.0667 17.9417 14.2334 17.1583C15.2834 16.45 15.8667 15.5 15.8667 14.4667C15.8584 13.4417 15.2834 12.4917 14.2334 11.7917Z" fill="#B9BABC"/>
</svg>
